<svg width="1039" height="1137" viewBox="0 0 1039 1137" fill="none" xmlns="http://www.w3.org/2000/svg">
<path d="M862.896 478.855C858.726 485.505 854.296 492.005 849.626 498.315C845.146 504.375 840.166 511.585 842.356 518.795C873.226 477.415 918.525 447.025 968.515 434.145C988.345 429.035 1012.01 427.555 1026.75 441.775C1038.9 453.515 1040.83 473.085 1035.09 488.975C1029.35 504.865 1017.24 517.625 1004.29 528.475C960.296 565.335 904.666 584.835 849.896 601.985C841.576 604.595 832.955 607.315 826.455 613.135C816.955 621.625 813.766 634.954 811.076 647.414C805.316 674.034 799.566 700.665 793.806 727.285C791.566 737.625 786.786 750.285 776.216 750.855C769.036 751.245 762.845 745.055 760.745 738.175C758.645 731.305 759.686 723.915 760.736 716.805C764.076 694.185 767.425 671.565 770.765 648.945C772.385 638.005 773.956 626.575 770.386 616.105C764.896 600.045 748.945 590.414 734.415 581.664C691.555 555.844 649.246 523.785 629.546 477.795C604.286 418.835 652.606 371.545 708.176 409.845C744.526 434.895 766.576 475.375 787.316 514.335C783.286 475.565 779.246 436.495 782.876 397.675C786.506 358.865 798.375 319.865 823.015 289.655C831.055 279.805 840.665 270.794 852.495 266.124C864.315 261.454 878.676 261.785 888.856 269.395C896.726 275.265 901.226 284.625 904.116 294.005C911.406 317.695 910.095 343.245 905.785 367.655C898.835 407.025 884.146 444.995 862.906 478.865L862.896 478.855Z" fill="#D28358"/>
<path d="M237.865 878.826C235.615 886.526 233.225 894.176 230.755 901.736C244.955 874.856 262.005 849.477 281.525 826.177C301.085 802.817 324.165 780.887 353.035 771.137C363.845 767.487 375.885 765.696 386.535 769.786C398.585 774.406 407.004 786.136 409.934 798.696C412.864 811.266 410.915 824.546 406.925 836.816C397.505 865.756 377.185 890.066 353.995 909.786C330.805 929.506 304.575 945.237 279.405 962.347C267.465 970.467 255.285 979.426 248.865 992.366C241.715 1006.77 242.835 1023.71 244.115 1039.73C245.845 1061.38 247.575 1083.02 249.315 1104.67C249.845 1111.32 250.355 1118.21 248.125 1124.51C245.895 1130.81 240.165 1136.38 233.495 1136.2C223.115 1135.92 218.075 1123.6 215.845 1113.46C211.475 1093.6 208.005 1073.54 205.425 1053.37C202.985 1034.24 200.525 1013.25 186.515 999.996C178.345 992.276 167.365 988.406 156.645 985.036C125.655 975.296 93.6046 967.917 64.7846 952.927C35.9646 937.937 9.97456 913.686 2.01456 882.186C-2.11544 865.826 -0.375456 846.607 11.7445 834.887C23.5145 823.507 41.8145 822.086 57.9745 824.726C106.915 832.726 145.135 869.936 179.905 905.286C163.695 862.376 147.325 818.816 143.225 773.126C140.005 737.206 159.775 596.646 223.175 651.066C235.045 661.256 241.775 676.186 246.445 691.116C265.445 751.826 255.855 817.277 237.865 878.847V878.826Z" fill="#869279"/>
<path d="M502.476 209.106C501.566 211.906 500.616 214.696 499.636 217.476C494.696 231.366 488.816 246.265 493.016 260.405C501.036 235.815 513.656 212.745 530.036 192.735C540.406 180.065 552.226 168.646 564.676 158.016C578.476 146.236 593.556 135.146 611.086 130.436C626.556 126.276 644.566 127.946 656.346 138.806C672.226 153.446 671.526 179.095 663.966 199.325C643.486 254.105 587.456 285.186 539.946 319.296C526.816 328.726 513.646 339.206 506.536 353.726C488.316 390.946 516.786 435.576 508.756 476.226C507.366 483.276 503.946 491.025 497.036 493.025C485.336 496.405 477.226 481.546 474.536 469.676C470.016 449.786 466.806 429.606 464.926 409.296C463.516 394.136 462.516 377.936 453.426 365.726C442.586 351.166 423.366 346.246 405.766 341.796C353.346 328.546 297.346 307.405 270.896 260.245C264.196 248.295 259.676 234.715 260.616 221.035C261.556 207.355 268.596 193.685 280.576 187.035C290.126 181.735 301.656 181.326 312.506 182.606C364.326 188.746 404.826 228.595 441.006 266.205C423.646 224.935 406.106 183.005 400.646 138.575C396.346 103.545 412.186 -32.8945 477.556 7.35553C491.206 15.7655 499.156 30.9259 504.616 46.0059C523.466 98.0959 519.636 156.305 502.486 209.115L502.476 209.106Z" fill="#D28358"/>
</svg>
